<svg id="Capa_1" enable-background="new 0 0 512 512" height="512" viewBox="0 0 512 512" width="512" xmlns="http://www.w3.org/2000/svg" xmlns:xlink="http://www.w3.org/1999/xlink"><linearGradient id="SVGID_1_" gradientUnits="userSpaceOnUse" x1="256" x2="256" y1="512" y2="0"><stop offset="0" stop-color="#fd3a84"/><stop offset="1" stop-color="#ffa68d"/></linearGradient><g><g><g><path d="m107.001 360h60c8.284 0 15-6.716 15-15s-6.716-15-15-15h-60c-8.284 0-15 6.716-15 15s6.716 15 15 15zm0 30c-8.284 0-15 6.716-15 15s6.716 15 15 15h180c8.284 0 15-6.716 15-15s-6.716-15-15-15zm400.606-343.18-42.426-42.426c-5.857-5.858-15.355-5.858-21.213 0l-115.607 115.606h-313.36c-8.284 0-15 6.716-15 15v362c0 8.284 6.716 15 15 15h362c8.284 0 15-6.716 15-15v-313.36l73.176-73.176c.001-.001.003-.002.004-.004s.002-.003.004-.004l42.423-42.423c5.853-5.853 5.857-15.356-.001-21.213zm-145.606 435.18h-332v-332h268.36l-66.525 66.525c-1.647 1.646-2.887 3.654-3.624 5.863l-21.213 63.64c-1.796 5.39-.394 11.333 3.624 15.35 4.032 4.033 9.978 5.414 15.35 3.624l63.64-21.213c2.209-.737 4.217-1.977 5.863-3.624l66.525-66.526zm-85.234-225.552-31.82 10.606 10.606-31.82 156.595-156.595 21.213 21.214zm177.807-177.808-21.213-21.214 21.213-21.213 21.214 21.213z" fill="url(#SVGID_1_)"/></g></g></g></svg>