<svg id="Capa_1" enable-background="new 0 0 512 512" height="512" viewBox="0 0 512 512" width="512" xmlns="http://www.w3.org/2000/svg" xmlns:xlink="http://www.w3.org/1999/xlink"><linearGradient id="SVGID_1_" gradientUnits="userSpaceOnUse" x1="256" x2="256" y1="512" y2="0"><stop offset="0" stop-color="#a93aff"/><stop offset="1" stop-color="#ff81ff"/></linearGradient><g><g><g><path d="m256 390c12.01 0 23.796-2.015 35.029-5.989 7.81-2.763 11.902-11.334 9.139-19.144s-11.335-11.902-19.144-9.138c-8.012 2.834-16.431 4.271-25.024 4.271-41.355 0-75-33.645-75-75s33.645-75 75-75 75 33.645 75 75c0 8.271-6.729 15-15 15s-15-6.729-15-15v-30c0-8.284-6.716-15-15-15h-30c-24.813 0-45 20.187-45 45s20.187 45 45 45c11.517 0 22.032-4.354 30-11.495 7.968 7.142 18.483 11.495 30 11.495 24.813 0 45-20.187 45-45 0-57.897-47.103-105-105-105s-105 47.103-105 105 47.103 105 105 105zm15-105c0 8.271-6.729 15-15 15s-15-6.729-15-15 6.729-15 15-15h15zm226-225h-141.729l-17.563-35.125c-7.672-15.344-23.095-24.875-40.249-24.875h-82.918c-17.154 0-32.577 9.531-40.25 24.875l-17.562 35.125h-141.729c-8.284 0-15 6.716-15 15s6.716 15 15 15h47.028l27.02 380.206c1.674 23.436 21.39 41.794 44.886 41.794h244.133c23.495 0 43.211-18.358 44.886-41.799l27.019-380.201h47.028c8.284 0 15-6.716 15-15s-6.716-15-15-15zm-295.876-21.708c2.558-5.115 7.699-8.292 13.417-8.292h82.918c5.718 0 10.859 3.177 13.417 8.292l10.854 21.708h-131.46zm191.904 429.776c-.558 7.812-7.13 13.932-14.962 13.932h-244.132c-7.832 0-14.404-6.12-14.961-13.926l-26.869-378.074h327.792z" fill="url(#SVGID_1_)"/></g></g></g></svg>